<svg width="499" height="445" viewBox="0 0 499 445" fill="none" xmlns="http://www.w3.org/2000/svg">
<mask id="mask0" mask-type="alpha" maskUnits="userSpaceOnUse" x="0" y="0" width="499" height="445">
<rect width="499" height="445" fill="#C4C4C4"/>
</mask>
<g mask="url(#mask0)">
<path d="M474.867 300.348C485.07 217.076 435.666 106.388 384.434 60.6936C291.969 -21.8284 215.148 -5.86959 155.405 23.6883C95.6618 53.2462 87.1095 151.904 45.8621 196.548C4.61478 241.192 -18.8733 301.235 43.7343 361.019C106.342 420.803 156.824 390.413 222.268 386.635C287.713 382.857 374.477 412.687 421.412 386.73C454.216 368.617 470.366 337.163 474.867 300.348Z" fill="#F2F2F2"/>
<path opacity="0.7" d="M474.867 300.348C485.07 217.076 435.666 106.388 384.434 60.6936C291.969 -21.8284 215.148 -5.86959 155.405 23.6883C95.6618 53.2462 87.1095 151.904 45.8621 196.548C4.61478 241.192 -18.8733 301.235 43.7343 361.019C106.342 420.803 156.824 390.413 222.268 386.635C287.713 382.857 374.477 412.687 421.412 386.73C454.216 368.617 470.366 337.163 474.867 300.348Z" fill="white"/>
<path d="M215.134 426.996C301.728 426.996 371.926 405.127 371.926 378.151C371.926 351.175 301.728 329.306 215.134 329.306C128.541 329.306 58.3427 351.175 58.3427 378.151C58.3427 405.127 128.541 426.996 215.134 426.996Z" fill="#F2F2F2"/>
<path opacity="0.5" d="M215.134 426.996C301.728 426.996 371.926 405.127 371.926 378.151C371.926 351.175 301.728 329.306 215.134 329.306C128.541 329.306 58.3427 351.175 58.3427 378.151C58.3427 405.127 128.541 426.996 215.134 426.996Z" fill="white"/>
<path d="M201.89 162.775C201.89 162.775 166.358 158.561 142.979 176.797C119.6 195.034 99.4945 271.241 99.9583 307.741C100.422 344.242 113.994 362.451 148.121 377.401C182.248 392.35 245.824 386.758 281.357 375.532C316.889 364.306 328.578 325.064 328.115 304.004C327.651 282.944 304.272 258.651 296.32 253.536C288.368 248.421 265.93 237.645 254.718 220.8C243.506 203.955 227.124 167.454 201.89 162.775Z" fill="#F2F2F2"/>
<path opacity="0.13" d="M287.877 373.009C274.441 371.194 258.51 367.553 246.452 360.228C220.986 344.774 214.63 315.666 205.532 304.754C196.434 293.842 180.066 294.756 172.796 282.93C165.526 271.104 177.338 183.822 156.428 178.366C152.185 177.14 147.791 176.511 143.374 176.497C143.252 176.606 143.102 176.688 142.979 176.797C119.6 195.034 99.4945 271.241 99.9583 307.741C100.422 344.242 113.994 362.451 148.121 377.401C182.248 392.35 245.824 386.758 281.357 375.532C283.58 374.827 285.758 373.984 287.877 373.009Z" fill="black"/>
<path d="M201.89 162.775C201.89 162.775 166.358 158.561 142.979 176.797C119.6 195.034 99.4945 271.241 99.9583 307.741C100.422 344.242 113.994 362.451 148.121 377.401C182.248 392.35 245.824 386.758 281.357 375.532C316.889 364.306 328.578 325.064 328.115 304.004C327.651 282.944 304.272 258.651 296.32 253.536C288.368 248.421 265.93 237.645 254.718 220.8C243.506 203.955 227.124 167.454 201.89 162.775Z" stroke="#071A23" stroke-linecap="round" stroke-linejoin="round"/>
<path d="M187.895 179.252C187.895 179.252 164.707 183.685 160.615 187.777C156.523 191.869 139.473 255.977 139.473 255.977C144.214 254.823 149.186 255.06 153.795 256.659C160.615 259.387 161.297 266.549 161.979 269.958C162.527 274.031 162.868 278.128 163.002 282.234C163.002 282.234 231.925 276.083 246.588 272.687C261.251 269.29 283.566 267.708 283.566 267.708C283.566 267.708 245.865 182.676 240.068 179.607C234.271 176.538 210.06 176.197 206.65 176.879C203.24 177.561 187.895 179.252 187.895 179.252Z" fill="#071A23" stroke="#071A23" stroke-linecap="round" stroke-linejoin="round"/>
<path d="M165.048 258.024L170.845 210.625" stroke="white" stroke-linecap="round" stroke-linejoin="round"/>
<path d="M169.481 223.242L177.324 213.011" stroke="white" stroke-linecap="round" stroke-linejoin="round"/>
<path d="M193.01 229.379C193.01 229.379 215.175 222.219 229.838 222.219" stroke="white" stroke-linecap="round" stroke-linejoin="round"/>
<path d="M213.934 209.833L212.447 221.196C212.447 221.196 216.198 221.196 216.539 222.901C216.563 223.533 216.454 224.163 216.219 224.75C215.984 225.337 215.628 225.869 215.175 226.311C215.175 226.311 225.746 232.107 227.11 238.927" stroke="white" stroke-linecap="round" stroke-linejoin="round"/>
<path d="M200.622 166.54C200.622 166.54 187.895 170.632 186.068 173.81C184.24 176.988 185.618 199.276 185.618 202.004C185.618 204.732 187.213 200.408 188.577 197.23C189.941 194.052 194.715 189.264 196.298 189.728C197.88 190.192 198.807 191.992 198.807 194.952C198.807 197.912 202.436 202.004 205.627 204.268C208.819 206.532 211.765 208.824 211.765 208.824C211.765 208.824 218.354 199.276 219.949 196.766C221.545 194.256 221.313 189.046 221.532 187.218C221.75 185.39 225.856 192.224 226.769 190.41C227.683 188.596 224.723 187 221.532 181.994C218.34 176.988 219.267 171.764 214.493 168.122C209.719 164.48 204.263 165.612 200.622 166.54Z" fill="white"/>
<path d="M186.068 173.796C184.867 175.924 185.058 186.536 185.331 194.256C188.236 190.519 194.224 183.454 197.689 184.79C202.108 186.495 203.8 199.058 203.8 199.058L200.812 166.54H200.622C200.622 166.54 187.895 170.632 186.068 173.796Z" fill="#F2F2F2"/>
<path opacity="0.5" d="M186.068 173.796C184.867 175.924 185.058 186.536 185.331 194.256C188.236 190.519 194.224 183.454 197.689 184.79C202.108 186.495 203.8 199.058 203.8 199.058L200.812 166.54H200.622C200.622 166.54 187.895 170.632 186.068 173.796Z" fill="white"/>
<path d="M200.622 166.54C200.622 166.54 187.895 170.632 186.068 173.81C184.24 176.988 185.618 199.276 185.618 202.004C185.618 204.732 187.213 200.408 188.577 197.23C189.941 194.052 194.715 189.264 196.298 189.728C197.88 190.192 198.807 191.992 198.807 194.952C198.807 197.912 202.436 202.004 205.627 204.268C208.819 206.532 211.765 208.824 211.765 208.824C211.765 208.824 218.354 199.276 219.949 196.766C221.545 194.256 221.313 189.046 221.532 187.218C221.75 185.39 225.856 192.224 226.769 190.41C227.683 188.596 224.723 187 221.532 181.994C218.34 176.988 219.267 171.764 214.493 168.122C209.719 164.48 204.263 165.612 200.622 166.54Z" stroke="#071A23" stroke-linecap="round" stroke-linejoin="round"/>
<path d="M170.504 258.705C170.504 258.705 162.661 247.452 153.113 246.429C143.565 245.406 131.971 253.249 131.63 255.977C131.289 258.705 128.902 273.369 130.607 275.415C132.312 277.461 138.791 279.166 151.408 275.074C164.025 270.982 169.14 265.867 170.504 258.705Z" fill="white"/>
<path d="M138.6 275.06C138.6 275.06 135.872 267.258 137.236 264.543C138.6 261.829 144.056 257.723 147.426 253.631C150.795 249.539 139.473 255.937 138.928 253.631C138.505 251.776 144.916 248.066 147.439 246.689C139.501 248.216 131.903 253.741 131.63 255.937C131.289 258.665 128.902 273.328 130.607 275.374C131.48 276.424 133.649 277.392 137.264 277.515C138.082 276.11 138.6 275.06 138.6 275.06Z" fill="#F2F2F2"/>
<path opacity="0.5" d="M138.6 275.06C138.6 275.06 135.872 267.258 137.236 264.543C138.6 261.829 144.056 257.723 147.426 253.631C150.795 249.539 139.473 255.937 138.928 253.631C138.505 251.776 144.916 248.066 147.439 246.689C139.501 248.216 131.903 253.741 131.63 255.937C131.289 258.665 128.902 273.328 130.607 275.374C131.48 276.424 133.649 277.392 137.264 277.515C138.082 276.11 138.6 275.06 138.6 275.06Z" fill="white"/>
<path d="M170.504 258.705C170.504 258.705 162.661 247.452 153.113 246.429C143.565 245.406 131.971 253.249 131.63 255.977C131.289 258.705 128.902 273.369 130.607 275.415C132.312 277.461 138.791 279.166 151.408 275.074C164.025 270.982 169.14 265.867 170.504 258.705Z" stroke="#071A23" stroke-linecap="round" stroke-linejoin="round"/>
<path d="M143.906 261.775C143.906 261.775 131.112 266.849 130.607 276.779C130.321 282.235 139.473 284.622 149.021 284.622C158.569 284.622 172.209 272.687 181.075 267.572C189.941 262.457 210.401 250.522 212.788 249.498C215.175 248.475 223.359 251.204 226.769 252.227C230.019 252.923 233.335 253.266 236.658 253.25C236.658 253.25 241.432 260.752 243.819 260.752C246.206 260.752 238.704 249.498 237.681 247.111C236.658 244.724 219.949 239.268 217.903 239.268C215.857 239.268 168.117 251.204 160.956 253.932C153.795 256.66 143.906 261.775 143.906 261.775Z" fill="white"/>
<path d="M170.654 260.356C190.146 250.603 217.903 239.268 217.903 239.268C215.857 239.268 168.117 251.204 160.956 253.932C153.795 256.66 143.906 261.775 143.906 261.775C143.906 261.775 131.112 266.849 130.607 276.779C130.321 282.235 139.473 284.622 149.021 284.622C158.569 284.622 172.209 272.687 181.075 267.572L186.45 264.462C173.423 266.112 156.005 267.667 170.654 260.356Z" fill="#F2F2F2"/>
<path opacity="0.5" d="M170.654 260.356C190.146 250.603 217.903 239.268 217.903 239.268C215.857 239.268 168.117 251.204 160.956 253.932C153.795 256.66 143.906 261.775 143.906 261.775C143.906 261.775 131.112 266.849 130.607 276.779C130.321 282.235 139.473 284.622 149.021 284.622C158.569 284.622 172.209 272.687 181.075 267.572L186.45 264.462C173.423 266.112 156.005 267.667 170.654 260.356Z" fill="white"/>
<path d="M143.906 261.775C143.906 261.775 131.112 266.849 130.607 276.779C130.321 282.235 139.473 284.622 149.021 284.622C158.569 284.622 172.209 272.687 181.075 267.572C189.941 262.457 210.401 250.522 212.788 249.498C215.175 248.475 223.359 251.204 226.769 252.227C230.019 252.923 233.335 253.266 236.658 253.25C236.658 253.25 241.432 260.752 243.819 260.752C246.206 260.752 238.704 249.498 237.681 247.111C236.658 244.724 219.949 239.268 217.903 239.268C215.857 239.268 168.117 251.204 160.956 253.932C153.795 256.66 143.906 261.775 143.906 261.775Z" stroke="#071A23" stroke-linecap="round" stroke-linejoin="round"/>
<path d="M243.642 185.936L233.248 244.383L308.268 244.724L319.426 189.291C319.519 188.802 319.504 188.299 319.384 187.816C319.264 187.333 319.041 186.881 318.73 186.493C318.419 186.104 318.028 185.787 317.583 185.564C317.138 185.341 316.65 185.216 316.152 185.199L247.134 183.126C246.312 183.099 245.508 183.368 244.867 183.884C244.226 184.399 243.792 185.127 243.642 185.936Z" fill="white" stroke="#071A23" stroke-linecap="round" stroke-linejoin="round"/>
<path d="M233.248 244.383L196.72 270.218L280.265 267.831L308.268 244.724L233.248 244.383Z" fill="white"/>
<path d="M233.248 244.383L196.72 270.218L280.265 267.831L308.268 244.724L233.248 244.383Z" fill="#F2F2F2"/>
<path opacity="0.5" d="M233.248 244.383L196.72 270.218L280.265 267.831L308.268 244.724L233.248 244.383Z" fill="white"/>
<path d="M233.248 244.383L196.72 270.218L280.265 267.831L308.268 244.724L233.248 244.383Z" stroke="#071A23" stroke-linecap="round" stroke-linejoin="round"/>
<path d="M260.869 269.958C260.869 269.958 290.877 243.701 320.544 234.835C350.211 225.969 356.349 227.333 355.667 240.632C354.985 253.931 340.663 323.495 331.115 341.227C321.567 358.96 309.632 391.355 309.973 397.493C310.314 403.631 321.908 421.704 332.138 428.183C342.368 434.662 341.345 442.505 334.866 443.869C328.387 445.233 320.885 447.62 298.72 433.298C276.555 418.976 267.348 398.516 268.712 393.401C270.076 388.286 284.398 381.465 290.195 371.236C295.992 361.005 305.54 322.813 306.222 305.422C306.776 294.443 309.079 283.622 313.042 273.368C313.042 273.368 275.532 280.188 264.62 287.008L260.869 269.958Z" fill="white"/>
<path d="M260.869 269.958C260.869 269.958 290.877 243.701 320.544 234.835C350.211 225.969 356.349 227.333 355.667 240.632C354.985 253.931 340.663 323.495 331.115 341.227C321.567 358.96 309.632 391.355 309.973 397.493C310.314 403.631 321.908 421.704 332.138 428.183C342.368 434.662 341.345 442.505 334.866 443.869C328.387 445.233 320.885 447.62 298.72 433.298C276.555 418.976 267.348 398.516 268.712 393.401C270.076 388.286 284.398 381.465 290.195 371.236C295.992 361.005 305.54 322.813 306.222 305.422C306.776 294.443 309.079 283.622 313.042 273.368C313.042 273.368 275.532 280.188 264.62 287.008L260.869 269.958Z" fill="#F2F2F2"/>
<path opacity="0.5" d="M260.869 269.958C260.869 269.958 290.877 243.701 320.544 234.835C350.211 225.969 356.349 227.333 355.667 240.632C354.985 253.931 340.663 323.495 331.115 341.227C321.567 358.96 309.632 391.355 309.973 397.493C310.314 403.631 321.908 421.704 332.138 428.183C342.368 434.662 341.345 442.505 334.866 443.869C328.387 445.233 320.885 447.62 298.72 433.298C276.555 418.976 267.348 398.516 268.712 393.401C270.076 388.286 284.398 381.465 290.195 371.236C295.992 361.005 305.54 322.813 306.222 305.422C306.776 294.443 309.079 283.622 313.042 273.368C313.042 273.368 275.532 280.188 264.62 287.008L260.869 269.958Z" fill="white"/>
<path d="M260.869 269.958C260.869 269.958 290.877 243.701 320.544 234.835C350.211 225.969 356.349 227.333 355.667 240.632C354.985 253.931 340.663 323.495 331.115 341.227C321.567 358.959 309.632 391.355 309.973 397.493C310.314 403.631 321.908 421.704 332.138 428.183C342.368 434.662 341.345 442.505 334.866 443.869C328.387 445.233 320.885 447.62 298.72 433.298C276.555 418.976 267.348 398.516 268.712 393.401C270.076 388.286 284.398 381.466 290.195 371.236C295.992 361.005 305.54 322.813 306.222 305.422C306.776 294.443 309.079 283.622 313.042 273.368C313.042 273.368 275.532 280.188 264.62 287.008L260.869 269.958Z" stroke="#071A23" stroke-linecap="round" stroke-linejoin="round"/>
<path d="M290.195 371.236C289.759 371.999 289.268 372.736 288.75 373.472C295.803 374.137 302.49 376.924 307.927 381.465C309.562 382.886 311.12 384.393 312.592 385.98C317.543 370.585 323.738 355.618 331.115 341.227C340.663 323.495 354.985 253.931 355.667 240.632C356.349 227.333 350.211 225.969 320.544 234.835C290.877 243.701 260.869 269.958 260.869 269.958L264.62 287.008C275.532 280.188 313.042 273.368 313.042 273.368C309.079 283.622 306.776 294.443 306.222 305.422C305.54 322.813 295.992 361.005 290.195 371.236Z" fill="white" stroke="#071A23" stroke-linecap="round" stroke-linejoin="round"/>
<path d="M290.195 371.236C289.759 371.999 289.268 372.736 288.75 373.472C295.803 374.137 302.49 376.924 307.927 381.465C309.562 382.886 311.12 384.393 312.592 385.98C319.126 377.196 326.478 349.493 334.771 338.09C356.199 308.641 354.985 253.931 355.667 240.632C356.349 227.333 350.211 225.969 320.544 234.835C290.877 243.701 260.869 269.958 260.869 269.958L264.62 287.008C275.532 280.188 313.042 273.368 313.042 273.368C309.079 283.622 306.776 294.443 306.222 305.422C305.54 322.813 295.992 361.005 290.195 371.236Z" fill="#071A23"/>
<path opacity="0.53" d="M290.195 371.236C289.759 371.999 289.268 372.736 288.75 373.472C295.803 374.137 302.49 376.924 307.927 381.465C309.562 382.886 311.12 384.393 312.592 385.98C319.126 377.196 326.478 349.493 334.771 338.09C356.199 308.641 354.985 253.931 355.667 240.632C356.349 227.333 350.211 225.969 320.544 234.835C290.877 243.701 260.869 269.958 260.869 269.958L264.62 287.008C275.532 280.188 313.042 273.368 313.042 273.368C309.079 283.622 306.776 294.443 306.222 305.422C305.54 322.813 295.992 361.005 290.195 371.236Z" fill="white"/>
<path opacity="0.14" d="M341.25 238.832C340.718 233.99 287.972 256.318 265.725 265.948C262.643 268.403 260.869 269.958 260.869 269.958L264.62 287.008C275.532 280.188 313.042 273.368 313.042 273.368C309.079 283.622 306.776 294.443 306.222 305.422C305.54 322.813 295.992 361.005 290.195 371.235C289.759 371.999 289.268 372.736 288.75 373.472C292.505 373.875 296.182 374.826 299.662 376.296C307.832 358.864 316.63 338.581 320.79 322.718C328.292 294.074 341.932 244.97 341.25 238.832Z" fill="black"/>
<path d="M313.042 273.368C313.042 273.368 323.272 252.568 332.138 244.043" stroke="#071A23" stroke-linecap="round" stroke-linejoin="round"/>
<path d="M290.195 371.236C289.759 371.999 289.268 372.736 288.75 373.472C295.803 374.137 302.49 376.924 307.927 381.466C309.562 382.886 311.12 384.393 312.592 385.98C319.126 377.196 326.478 349.493 334.771 338.09C356.199 308.641 354.985 253.931 355.667 240.632C356.349 227.333 350.211 225.969 320.544 234.835C290.877 243.701 260.869 269.958 260.869 269.958L264.62 287.008C275.532 280.188 313.042 273.368 313.042 273.368C309.079 283.622 306.776 294.443 306.222 305.422C305.54 322.813 295.992 361.005 290.195 371.236Z" stroke="#071A23" stroke-linecap="round" stroke-linejoin="round"/>
<path d="M215.912 297.484C226.896 296.983 237.755 294.939 248.171 291.414C263.597 285.795 235.54 275.51 224.792 281.13C221.788 282.586 219.317 284.947 217.724 287.88C216.131 290.813 215.498 294.172 215.912 297.484Z" fill="#071A23" stroke="#071A23" stroke-linecap="round" stroke-linejoin="round"/>
<path d="M171.527 275.415C171.527 275.415 160.615 281.553 156.864 288.373C153.113 295.193 169.25 306.555 186.3 305.873C203.35 305.191 234.612 286.668 234.612 286.668C234.612 286.668 234.953 316.676 240.75 327.588C246.547 338.5 273.145 365.098 283.716 371.918C294.287 378.738 329.751 404.313 335.207 408.405C340.663 412.497 350.893 419.999 353.28 420.34C355.667 420.681 380.56 390.332 386.357 380.102C392.154 369.872 397.269 348.389 395.223 343.615C393.177 338.841 389.085 342.933 384.993 346.343C380.901 349.753 343.391 374.646 339.981 376.351C338.119 377.307 336.18 378.105 334.184 378.738C334.184 378.738 303.494 349.412 287.126 326.906C270.758 304.4 269.394 275.415 263.256 264.503C257.118 253.591 248.252 248.817 234.953 250.181C221.654 251.545 194.033 258.706 171.527 275.415Z" fill="white"/>
<path d="M315.811 394.328C324.923 400.848 332.848 406.604 335.207 408.377C340.663 412.469 350.893 419.971 353.28 420.312C354.126 420.435 357.809 416.684 362.46 411.351L323.409 386.226L315.811 394.328Z" fill="#F2F2F2"/>
<path opacity="0.5" d="M315.811 394.328C324.923 400.848 332.848 406.604 335.207 408.377C340.663 412.469 350.893 419.971 353.28 420.312C354.126 420.435 357.809 416.684 362.46 411.351L323.409 386.226L315.811 394.328Z" fill="white"/>
<path d="M171.527 275.415C171.527 275.415 160.615 281.553 156.864 288.373C153.113 295.193 169.25 306.555 186.3 305.873C203.35 305.191 234.612 286.668 234.612 286.668C234.612 286.668 234.953 316.676 240.75 327.588C246.547 338.5 273.145 365.098 283.716 371.918C294.287 378.738 329.751 404.313 335.207 408.405C340.663 412.497 350.893 419.999 353.28 420.34C355.667 420.681 380.56 390.332 386.357 380.102C392.154 369.872 397.269 348.389 395.223 343.615C393.177 338.841 389.085 342.933 384.993 346.343C380.901 349.753 343.391 374.646 339.981 376.351C338.119 377.307 336.18 378.105 334.184 378.738C334.184 378.738 303.494 349.412 287.126 326.906C270.758 304.4 269.394 275.415 263.256 264.503C257.118 253.591 248.252 248.817 234.953 250.181C221.654 251.545 194.033 258.706 171.527 275.415Z" stroke="#071A23" stroke-linecap="round" stroke-linejoin="round"/>
<path d="M332.07 376.692C324.855 369.653 297.806 333.357 287.126 312.488C271.481 281.907 269.79 271.486 263.652 260.574C257.514 249.662 248.252 248.817 235.008 250.181C221.763 251.545 197.907 254.013 168.718 270.572C168.718 270.572 156.442 277.229 152.704 284.049C148.967 290.869 162.62 308.041 186.354 305.873C203.349 304.318 234.667 286.668 234.667 286.668C234.667 286.668 235.008 316.676 240.805 327.588C246.602 338.5 273.2 365.098 283.771 371.918C290.468 376.241 307.177 388.108 319.903 397.247C323.04 385.83 328.674 379.583 332.07 376.692Z" fill="#071A23"/>
<path opacity="0.53" d="M332.07 376.692C324.855 369.653 297.806 333.357 287.126 312.488C271.481 281.907 269.79 271.486 263.652 260.574C257.514 249.662 248.252 248.817 235.008 250.181C221.763 251.545 197.907 254.013 168.718 270.572C168.718 270.572 156.442 277.229 152.704 284.049C148.967 290.869 162.62 308.041 186.354 305.873C203.349 304.318 234.667 286.668 234.667 286.668C234.667 286.668 235.008 316.676 240.805 327.588C246.602 338.5 273.2 365.098 283.771 371.918C290.468 376.241 307.177 388.108 319.903 397.247C323.04 385.83 328.674 379.583 332.07 376.692Z" fill="white"/>
<path opacity="0.14" d="M263.502 328.174C253.272 302.258 259.41 250.426 230.766 257.246C209.897 262.211 171.636 279.861 152.418 289.068C154.696 296.898 167.244 307.619 186.299 305.873C203.295 304.318 234.612 286.668 234.612 286.668C234.612 286.668 234.953 316.676 240.75 327.588C246.547 338.5 273.145 365.098 283.716 371.918C290.414 376.241 307.123 388.108 319.849 397.247C320.944 393.255 322.544 389.418 324.609 385.83C299.211 367.048 269.217 342.646 263.502 328.174Z" fill="black"/>
<path d="M234.612 286.668L233.589 268.936" stroke="#071A23" stroke-linecap="round" stroke-linejoin="round"/>
<path d="M332.07 376.692C324.855 369.653 297.806 333.357 287.126 312.488C271.481 281.907 269.79 271.486 263.652 260.574C257.514 249.662 248.252 248.817 235.008 250.181C221.763 251.545 197.907 254.013 168.718 270.572C168.718 270.572 156.442 277.229 152.704 284.049C148.967 290.869 162.62 308.041 186.354 305.873C203.349 304.318 234.667 286.668 234.667 286.668C234.667 286.668 235.008 316.676 240.805 327.588C246.602 338.5 273.2 365.098 283.771 371.918C290.468 376.241 307.177 388.108 319.903 397.247C323.04 385.83 328.674 379.583 332.07 376.692Z" stroke="#071A23" stroke-linecap="round" stroke-linejoin="round"/>
<path d="M335.207 408.404C340.663 412.496 350.893 419.998 353.28 420.339C355.667 420.68 380.56 390.331 386.357 380.101C392.154 369.871 397.269 348.389 395.223 343.615C393.177 338.841 389.085 342.933 384.993 346.343C380.901 349.753 343.391 374.645 339.981 376.35C339.081 376.801 338.263 377.169 337.54 377.483C336.558 379.351 335.357 382.243 336.176 384.193C337.54 387.262 343.337 391.354 343.337 391.354L333.011 406.822L335.207 408.404Z" fill="#071A23" stroke="#071A23" stroke-linecap="round" stroke-linejoin="round"/>
<path d="M386.357 380.102C392.154 369.872 397.269 348.389 395.223 343.615C394.037 340.887 392.168 341.064 389.999 342.401C391.431 348.77 389.999 361.06 382.947 374.305C376.659 386.117 357.236 407.041 347.483 417.161C349.26 418.498 351.222 419.569 353.308 420.34C355.667 420.681 380.56 390.332 386.357 380.102Z" fill="white"/>
<path d="M353.621 420.244L353.922 420.094L354.003 420.026C354.168 419.932 354.324 419.822 354.467 419.698L354.631 419.562L355.026 419.235L355.245 419.03L355.777 418.539L356.104 418.225L356.554 417.789L356.936 417.407L357.318 417.025L358.286 416.002L358.45 415.838L359.05 415.184L359.296 414.924C360.005 414.147 360.769 413.301 361.56 412.401V412.333L362.406 411.378L356.445 407.545C353.062 411.228 349.911 414.556 347.402 417.161L348.315 417.762L348.452 417.843L349.298 418.375L350.662 419.153L351.043 419.371L351.425 419.576L351.862 419.794L352.148 419.93C352.285 419.998 352.426 420.058 352.571 420.108L352.776 420.189C352.933 420.255 353.098 420.301 353.267 420.326C353.352 420.348 353.441 420.348 353.526 420.326L353.621 420.244Z" fill="#F2F2F2"/>
<path opacity="0.5" d="M353.621 420.244L353.922 420.094L354.003 420.026C354.168 419.932 354.324 419.822 354.467 419.698L354.631 419.562L355.026 419.235L355.245 419.03L355.777 418.539L356.104 418.225L356.554 417.789L356.936 417.407L357.318 417.025L358.286 416.002L358.45 415.838L359.05 415.184L359.296 414.924C360.005 414.147 360.769 413.301 361.56 412.401V412.333L362.406 411.378L356.445 407.545C353.062 411.228 349.911 414.556 347.402 417.161L348.315 417.762L348.452 417.843L349.298 418.375L350.662 419.153L351.043 419.371L351.425 419.576L351.862 419.794L352.148 419.93C352.285 419.998 352.426 420.058 352.571 420.108L352.776 420.189C352.933 420.255 353.098 420.301 353.267 420.326C353.352 420.348 353.441 420.348 353.526 420.326L353.621 420.244Z" fill="white"/>
<path d="M386.357 380.102C392.154 369.872 397.269 348.389 395.223 343.615C394.037 340.887 392.168 341.064 389.999 342.401C391.431 348.77 389.999 361.06 382.947 374.305C376.659 386.117 357.236 407.041 347.483 417.161C349.26 418.498 351.222 419.569 353.308 420.34C355.667 420.681 380.56 390.332 386.357 380.102Z" stroke="#071A23" stroke-linecap="round" stroke-linejoin="round"/>
<path d="M332.138 428.183C321.908 421.704 310.314 403.631 309.973 397.492C309.958 396.82 310.013 396.148 310.137 395.487C308.1 395.552 306.135 396.253 304.517 397.492C300.319 393.683 295.877 390.152 291.218 386.921C287.467 384.761 283.264 383.505 278.942 383.252C273.991 387.344 269.394 390.618 268.672 393.4C267.308 398.515 276.515 418.976 298.68 433.298C320.845 447.62 328.347 445.233 334.826 443.869C341.305 442.505 342.368 434.662 332.138 428.183Z" fill="#071A23" stroke="#071A23" stroke-linecap="round" stroke-linejoin="round"/>
<path d="M332.138 428.182C328.749 425.885 325.692 423.131 323.054 419.999C316.016 416.998 306.618 413.179 298.379 408.05C289.513 402.594 291.559 399.184 286.444 394.069C282.516 390.141 274.796 389.636 271.44 389.609C270.229 390.62 269.291 391.919 268.712 393.387C267.348 398.502 276.555 418.962 298.72 433.284C320.885 447.606 328.387 445.219 334.866 443.855C341.345 442.491 342.368 434.661 332.138 428.182Z" fill="white"/>
<path d="M332.138 428.182C328.749 425.885 325.692 423.131 323.054 419.999C316.016 416.998 306.618 413.179 298.379 408.05C289.513 402.594 291.559 399.184 286.444 394.069C282.516 390.141 274.796 389.636 271.44 389.609C270.229 390.62 269.291 391.919 268.712 393.387C267.348 398.502 276.555 418.962 298.72 433.284C320.885 447.606 328.387 445.219 334.866 443.855C341.345 442.491 342.368 434.661 332.138 428.182Z" fill="#F2F2F2"/>
<path opacity="0.5" d="M332.138 428.182C328.749 425.885 325.692 423.131 323.054 419.999C316.016 416.998 306.618 413.179 298.379 408.05C289.513 402.594 291.559 399.184 286.444 394.069C282.516 390.141 274.796 389.636 271.44 389.609C270.229 390.62 269.291 391.919 268.712 393.387C267.348 398.502 276.555 418.962 298.72 433.284C320.885 447.606 328.387 445.219 334.866 443.855C341.345 442.491 342.368 434.661 332.138 428.182Z" fill="white"/>
<path d="M332.138 428.182C328.749 425.885 325.692 423.131 323.054 419.999C316.016 416.998 306.618 413.179 298.379 408.05C289.513 402.594 291.559 399.184 286.444 394.069C282.516 390.141 274.796 389.636 271.44 389.609C270.229 390.62 269.291 391.919 268.712 393.387C267.348 398.502 276.555 418.962 298.72 433.284C320.885 447.606 328.387 445.219 334.866 443.855C341.345 442.491 342.368 434.661 332.138 428.182Z" stroke="#071A23" stroke-linecap="round" stroke-linejoin="round"/>
<path d="M333.843 430.569C324.977 425.454 306.904 422.044 295.31 414.201C283.716 406.358 286.785 399.538 278.26 394.082C276.898 393.064 275.266 392.469 273.569 392.372C271.871 392.275 270.182 392.68 268.712 393.537C267.526 398.856 276.76 419.085 298.72 433.297C320.681 447.51 328.387 445.232 334.866 443.868C339.177 442.955 341.045 439.19 338.822 434.866C337.431 433.15 335.745 431.695 333.843 430.569Z" fill="#071A23"/>
<path opacity="0.53" d="M333.843 430.569C324.977 425.454 306.904 422.044 295.31 414.201C283.716 406.358 286.785 399.538 278.26 394.082C276.898 393.064 275.266 392.469 273.569 392.372C271.871 392.275 270.182 392.68 268.712 393.537C267.526 398.856 276.76 419.085 298.72 433.297C320.681 447.51 328.387 445.232 334.866 443.868C339.177 442.955 341.045 439.19 338.822 434.866C337.431 433.15 335.745 431.695 333.843 430.569Z" fill="white"/>
<path d="M333.843 430.569C324.977 425.454 306.904 422.044 295.31 414.201C283.716 406.358 286.785 399.538 278.26 394.082C276.898 393.064 275.266 392.469 273.569 392.372C271.871 392.275 270.182 392.68 268.712 393.537C267.526 398.856 276.76 419.085 298.72 433.297C320.681 447.51 328.387 445.232 334.866 443.868C339.177 442.955 341.045 439.19 338.822 434.866C337.431 433.15 335.745 431.695 333.843 430.569V430.569Z" stroke="#071A23" stroke-linecap="round" stroke-linejoin="round"/>
<path d="M163.916 365.343C163.916 365.343 170.464 357.391 171.391 363.474C172.319 369.558 170.927 380.77 166.249 384.971C161.57 389.172 159.238 382.639 159.238 382.639L162.048 378.901C162.048 378.901 164.38 383.58 166.249 376.091C168.117 368.603 162.511 369.544 162.511 369.544L163.916 365.343Z" fill="white" stroke="#071A23" stroke-linecap="round" stroke-linejoin="round"/>
<path d="M158.91 395.269C155.037 398.134 142.406 398.134 138.546 395.269C130.362 389.199 131.726 359.873 131.726 359.873H165.635C165.635 359.873 167.108 389.199 158.91 395.269Z" fill="white" stroke="#071A23" stroke-linecap="round" stroke-linejoin="round"/>
<path d="M135.436 354.117C135.436 350.435 138.86 350.435 138.86 346.738C138.86 343.042 135.436 343.042 135.436 339.359C135.436 335.676 138.86 335.662 138.86 331.966C138.86 328.27 135.436 328.269 135.436 324.573C135.436 320.877 138.86 320.877 138.86 317.18" stroke="#071A23" stroke-linecap="round" stroke-linejoin="round"/>
<path d="M147.153 354.117C147.153 351.389 150.576 351.389 150.576 348.511C150.576 345.633 147.153 345.715 147.153 342.905C147.153 340.095 150.576 340.109 150.576 337.299C150.576 334.489 147.153 334.489 147.153 331.68C147.153 328.87 150.576 328.883 150.576 326.073" stroke="#071A23" stroke-linecap="round" stroke-linejoin="round"/>
<path d="M160.042 354.117C160.042 350.435 163.452 350.435 163.452 346.738C163.452 343.042 160.042 343.042 160.042 339.359C160.042 335.676 163.452 335.662 163.452 331.966C163.452 328.27 160.042 328.269 160.042 324.573C160.042 320.877 163.452 320.877 163.452 317.18" stroke="#071A23" stroke-linecap="round" stroke-linejoin="round"/>
<path d="M165.662 359.873C165.662 360.733 158.078 361.415 148.708 361.415C139.337 361.415 131.753 360.733 131.753 359.873C131.753 359.014 139.337 358.332 148.708 358.332C158.078 358.332 165.662 359.014 165.662 359.873Z" fill="white" stroke="#071A23" stroke-linecap="round" stroke-linejoin="round"/>
<path d="M196.966 148.808C196.966 148.808 198.562 166.035 199.23 171.478C199.899 176.92 201.413 192.551 202.981 197.721C204.55 202.891 213.102 211.879 213.893 209.806C214.684 207.733 218.94 193.67 217.249 185.254C215.557 176.838 215.039 169.65 216.089 167.522C217.14 165.394 220.918 163.007 220.918 163.007C216.517 160.753 212.242 158.263 208.11 155.546C202.081 151.536 197.812 146.994 196.966 148.808Z" fill="white"/>
<path d="M218.858 163.935L217.494 161.289C214.984 159.925 211.493 157.906 208.178 155.683C202.108 151.591 197.839 146.994 196.993 148.863C196.993 148.863 198.589 166.09 199.258 171.532C199.926 176.975 201.44 192.606 203.009 197.776C203.544 199.287 204.282 200.719 205.205 202.031C203.554 191.747 205.341 173.169 205.341 173.169L218.858 163.935Z" fill="#F2F2F2"/>
<path opacity="0.5" d="M218.858 163.935L217.494 161.289C214.984 159.925 211.493 157.906 208.178 155.683C202.108 151.591 197.839 146.994 196.993 148.863C196.993 148.863 198.589 166.09 199.258 171.532C199.926 176.975 201.44 192.606 203.009 197.776C203.544 199.287 204.282 200.719 205.205 202.031C203.554 191.747 205.341 173.169 205.341 173.169L218.858 163.935Z" fill="white"/>
<path d="M196.966 148.808C196.966 148.808 198.562 166.035 199.23 171.478C199.899 176.92 201.413 192.551 202.981 197.721C204.55 202.891 213.102 211.879 213.893 209.806C214.684 207.733 218.94 193.67 217.249 185.254C215.557 176.838 215.039 169.65 216.089 167.522C217.14 165.394 220.918 163.007 220.918 163.007C216.517 160.753 212.242 158.263 208.11 155.546C202.081 151.536 197.812 146.994 196.966 148.808Z" stroke="#071A23" stroke-linecap="round" stroke-linejoin="round"/>
<path d="M196.339 151.304C196.339 151.304 206.159 159.488 213.689 162.489C221.218 165.49 232.785 165.299 234.435 161.384C236.086 157.469 231.571 126.466 227.683 118.309C223.796 110.152 219.649 110.016 212.788 109.388C205.928 108.761 192.206 114.353 189.791 120.982C187.377 127.611 190.132 136.996 192.124 142.561C193.177 145.632 194.592 148.567 196.339 151.304Z" fill="white"/>
<path d="M213.975 150.936C210.497 140.624 209.624 124.392 209.624 120.068C209.624 116.727 218.326 113.058 222.295 111.557C219.69 109.948 216.662 109.743 212.747 109.388C205.927 108.775 192.165 114.353 189.75 120.982C187.336 127.611 190.091 136.996 192.083 142.561C193.136 145.632 194.551 148.567 196.298 151.304C196.298 151.304 206.118 159.488 213.648 162.489C218.866 164.464 224.518 165.005 230.016 164.058C224.628 162.025 216.294 157.824 213.975 150.936Z" fill="#F2F2F2"/>
<path opacity="0.5" d="M213.975 150.936C210.497 140.624 209.624 124.392 209.624 120.068C209.624 116.727 218.326 113.058 222.295 111.557C219.69 109.948 216.662 109.743 212.747 109.388C205.927 108.775 192.165 114.353 189.75 120.982C187.336 127.611 190.091 136.996 192.083 142.561C193.136 145.632 194.551 148.567 196.298 151.304C196.298 151.304 206.118 159.488 213.648 162.489C218.866 164.464 224.518 165.005 230.016 164.058C224.628 162.025 216.294 157.824 213.975 150.936Z" fill="white"/>
<path d="M196.339 151.304C196.339 151.304 206.159 159.488 213.689 162.489C221.218 165.49 232.785 165.299 234.435 161.384C236.086 157.469 231.571 126.466 227.683 118.309C223.796 110.152 219.649 110.016 212.788 109.388C205.928 108.761 192.206 114.353 189.791 120.982C187.377 127.611 190.132 136.996 192.124 142.561C193.177 145.632 194.592 148.567 196.339 151.304V151.304Z" stroke="#071A23" stroke-linecap="round" stroke-linejoin="round"/>
<path d="M228.42 131.076C228.584 135.004 226.115 138.292 222.964 138.414C219.813 138.537 217.058 135.468 216.908 131.594C216.758 127.721 219.213 124.379 222.364 124.242C225.515 124.106 228.27 127.107 228.42 131.076Z" stroke="#071A23" stroke-linecap="round" stroke-linejoin="round"/>
<path d="M236.14 129.548C236.304 133.477 235.035 136.709 233.317 136.778C231.598 136.846 230.07 133.722 229.92 129.794C229.77 125.866 231.039 122.619 232.757 122.551C234.476 122.483 235.99 125.62 236.14 129.548Z" stroke="#071A23" stroke-linecap="round" stroke-linejoin="round"/>
<path d="M228.829 129.63C228.829 129.63 240.096 131.772 239.005 134.486C237.913 137.2 230.302 140.133 230.302 140.133" fill="white"/>
<path d="M228.829 129.63C228.829 129.63 240.096 131.772 239.005 134.486C237.913 137.2 230.302 140.133 230.302 140.133" stroke="#071A23" stroke-linecap="round" stroke-linejoin="round"/>
<path d="M228.133 128.348C228.133 128.348 228.297 126.984 230.029 127.843" stroke="#071A23" stroke-linecap="round" stroke-linejoin="round"/>
<path d="M216.553 132.14L196.066 140.201" stroke="#071A23" stroke-linecap="round" stroke-linejoin="round"/>
<path d="M216.826 125.511C217.257 124.536 217.978 123.717 218.891 123.166C219.803 122.614 220.863 122.357 221.927 122.428" stroke="#071A23" stroke-width="2" stroke-linecap="round" stroke-linejoin="round"/>
<path d="M230.466 122.524L227.315 123.71" stroke="#071A23" stroke-width="2" stroke-linecap="round" stroke-linejoin="round"/>
<path d="M220.727 145.398C220.727 145.398 224.819 144.334 227.138 146.762" stroke="#071A23" stroke-linecap="round" stroke-linejoin="round"/>
<path d="M223.359 131.785C223.55 133.149 223.359 134.322 222.8 134.391C222.241 134.459 221.75 133.408 221.559 132.031C221.368 130.653 221.627 129.507 222.132 129.439C222.637 129.371 223.182 130.421 223.359 131.785Z" fill="#071A23"/>
<path d="M197.975 140.256C197.975 140.256 196.611 142.984 200.458 143.12C204.304 143.257 206.923 141.388 205.055 139.028C203.186 136.668 200.417 134.459 203.268 131.376C206.118 128.293 211.656 125.702 208.546 122.265C205.436 118.827 193.993 121.951 196.857 119.168C199.721 116.386 212.952 113.48 218.899 113.849C224.846 114.217 235.949 109.607 238.391 103.578C240.832 97.5489 237.422 86.405 229.429 87.0052C221.436 87.6053 215.476 94.6845 211.929 95.1892C208.383 95.6938 201.113 91.7519 195.016 95.1892C188.918 98.6264 188.714 108.502 188.196 109.716C187.677 110.93 179.411 112.73 177.952 121.092C177.404 124.462 177.638 127.914 178.636 131.18C179.634 134.446 181.369 137.439 183.708 139.928C187.132 143.652 188.673 145.071 188.673 145.071L197.975 140.256Z" fill="#071A23" stroke="#071A23" stroke-linecap="round" stroke-linejoin="round"/>
<path d="M180.625 125.143C180.554 126.411 180.858 127.673 181.498 128.771" stroke="white" stroke-width="0.75" stroke-linecap="round" stroke-linejoin="round"/>
<path d="M215.394 103.55C215.394 103.55 212.42 97.0442 220.004 97.0442C227.588 97.0442 228.679 106.592 220.822 110.057C212.966 113.521 195.875 114.394 186.654 118.473C184.845 119.181 183.234 120.318 181.962 121.787" stroke="white" stroke-width="0.75" stroke-linecap="round" stroke-linejoin="round"/>
<path d="M201.658 126.657C198.93 127.639 195.397 129.003 191.81 130.667C184.213 134.2 185.836 137.719 185.836 137.719" stroke="white" stroke-width="0.75" stroke-linecap="round" stroke-linejoin="round"/>
<path d="M206.719 124.979C206.719 124.979 206.05 125.17 204.918 125.538" stroke="white" stroke-width="0.75" stroke-linecap="round" stroke-linejoin="round"/>
<path d="M199.271 143.175C199.271 143.175 194.866 136.818 190.228 139.369C185.59 141.92 189.191 150.99 191.987 154.141C194.784 157.292 200.171 151.413 200.731 149.94" fill="white"/>
<path d="M199.271 143.175C199.271 143.175 194.866 136.818 190.228 139.369C185.59 141.92 189.191 150.99 191.987 154.141C194.784 157.292 200.171 151.413 200.731 149.94" fill="#F2F2F2"/>
<path opacity="0.5" d="M199.271 143.175C199.271 143.175 194.866 136.818 190.228 139.369C185.59 141.92 189.191 150.99 191.987 154.141C194.784 157.292 200.171 151.413 200.731 149.94" fill="white"/>
<path d="M199.271 143.175C199.271 143.175 194.866 136.818 190.228 139.369C185.59 141.92 189.191 150.99 191.987 154.141C194.784 157.292 200.171 151.413 200.731 149.94" stroke="#071A23" stroke-linecap="round" stroke-linejoin="round"/>
<path d="M143.634 137.378H45.8621C42.0051 137.378 38.8784 140.504 38.8784 144.361V215.835C38.8784 219.692 42.0051 222.819 45.8621 222.819H143.634C147.491 222.819 150.617 219.692 150.617 215.835V144.361C150.617 140.504 147.491 137.378 143.634 137.378Z" fill="white" stroke="#071A23" stroke-linecap="round" stroke-linejoin="round"/>
<path d="M148.49 198.84L213.961 215.89L148.49 183.836" fill="white"/>
<path d="M148.49 198.84L213.961 215.89L148.49 183.836" stroke="#071A23" stroke-linecap="round" stroke-linejoin="round"/>
<path d="M74.1923 145.589H47.9081V214.607H74.1923V145.589Z" fill="#F2F2F2" stroke="#071A23" stroke-linecap="round" stroke-linejoin="round"/>
<path d="M144.82 145.589H141.533V214.607H144.82V145.589Z" fill="#F2F2F2" stroke="#071A23" stroke-linecap="round" stroke-linejoin="round"/>
<path d="M144.82 177.138H141.533V183.031H144.82V177.138Z" fill="#071A23" stroke="#071A23" stroke-linecap="round" stroke-linejoin="round"/>
<path d="M82.4172 147.226H134.181" stroke="#071A23" stroke-linecap="round" stroke-linejoin="round"/>
<path d="M82.4172 154.619H134.181" stroke="#071A23" stroke-linecap="round" stroke-linejoin="round"/>
<path d="M82.4172 162.025H134.181" stroke="#071A23" stroke-linecap="round" stroke-linejoin="round"/>
<path d="M82.4172 169.418H134.181" stroke="#071A23" stroke-linecap="round" stroke-linejoin="round"/>
<path d="M82.4172 187.491H134.181" stroke="#071A23" stroke-linecap="round" stroke-linejoin="round"/>
<path d="M82.4172 194.066H134.181" stroke="#071A23" stroke-linecap="round" stroke-linejoin="round"/>
<path d="M82.4172 200.64H134.181" stroke="#071A23" stroke-linecap="round" stroke-linejoin="round"/>
<path d="M82.4172 214.28H134.181" stroke="#071A23" stroke-linecap="round" stroke-linejoin="round"/>
<path d="M47.9081 214.594L74.206 145.589" stroke="#071A23" stroke-linecap="round" stroke-linejoin="round"/>
<path d="M444.055 405.595C456.658 405.595 466.874 401.015 466.874 395.365C466.874 389.715 456.658 385.135 444.055 385.135C431.452 385.135 421.235 389.715 421.235 395.365C421.235 401.015 431.452 405.595 444.055 405.595Z" fill="#F2F2F2"/>
<path opacity="0.5" d="M444.055 405.595C456.658 405.595 466.874 401.015 466.874 395.365C466.874 389.715 456.658 385.135 444.055 385.135C431.452 385.135 421.235 389.715 421.235 395.365C421.235 401.015 431.452 405.595 444.055 405.595Z" fill="white"/>
<path d="M417.361 243.988C419.803 245.052 425.777 244.915 425.777 244.915C425.777 244.915 424.495 241.001 424.413 240.823C423.049 238.095 418.957 233.553 415.588 234.003C415.035 234.104 414.508 234.317 414.041 234.63C413.573 234.943 413.176 235.349 412.872 235.823C412.569 236.296 412.367 236.827 412.278 237.383C412.189 237.938 412.215 238.506 412.355 239.05C412.86 241.342 415.274 243.074 417.361 243.988Z" fill="#071A23"/>
<path d="M495.6 223.651C492.218 223.296 488.194 227.92 486.953 230.703C486.843 230.948 485.589 234.89 485.67 234.89H485.739C485.098 235.613 484.375 236.404 483.706 237.277C482.342 238.9 480.896 240.742 479.423 242.869C477.807 245.135 476.327 247.494 474.99 249.935C473.475 252.663 472.206 255.52 471.198 258.474C471.191 258.51 471.191 258.547 471.198 258.583C471.198 257.587 471.198 254.791 471.198 254.573C470.803 251.572 468.279 245.966 464.924 245.352C464.367 245.276 463.801 245.315 463.26 245.468C462.719 245.62 462.215 245.883 461.78 246.238C461.345 246.594 460.988 247.036 460.731 247.536C460.474 248.035 460.322 248.583 460.286 249.144C460.095 251.531 461.828 253.931 463.519 255.446C465.429 257.151 470.721 258.801 471.144 258.924C470.2 261.955 469.453 265.044 468.907 268.172C468.58 269.999 468.32 271.841 468.061 273.696C468.061 272.823 468.061 272.059 468.061 271.95C467.666 268.935 465.142 263.343 461.8 262.729C461.244 262.651 460.677 262.689 460.135 262.839C459.593 262.99 459.088 263.251 458.652 263.605C458.216 263.96 457.857 264.401 457.598 264.9C457.34 265.399 457.187 265.947 457.149 266.508C456.958 268.908 458.691 271.295 460.382 272.809C462.073 274.323 466.588 275.851 467.788 276.233C467.707 276.942 467.611 277.597 467.516 278.361C467.106 281.771 466.724 285.181 466.233 288.523C466.056 289.696 465.852 290.841 465.647 291.987C465.647 291.223 465.647 290.623 465.647 290.487C465.251 287.472 462.728 281.88 459.373 281.252C458.816 281.176 458.249 281.216 457.708 281.368C457.167 281.521 456.663 281.783 456.228 282.139C455.793 282.495 455.436 282.936 455.179 283.436C454.922 283.936 454.771 284.483 454.735 285.044C454.544 287.445 456.276 289.832 457.968 291.346C459.659 292.86 463.737 294.238 465.156 294.688C464.91 295.861 464.651 297.034 464.365 298.166C464.147 298.93 463.983 299.68 463.724 300.43C463.465 301.18 463.246 301.931 463.001 302.667C462.496 304.031 461.978 305.532 461.446 306.882C461.078 307.837 460.709 308.737 460.355 309.61C460.532 308.437 460.846 306.145 460.846 305.954C460.812 303.281 460.094 300.66 458.759 298.343C458.779 298.048 458.779 297.752 458.759 297.457C458.678 296.901 458.484 296.367 458.188 295.889C457.892 295.412 457.501 295 457.039 294.68C456.577 294.36 456.054 294.139 455.503 294.03C454.951 293.921 454.384 293.927 453.835 294.047C450.547 294.92 448.461 300.689 448.297 303.717C448.297 303.908 448.406 305.859 448.501 307.087C448.338 306.377 448.188 305.723 448.01 304.945C447.656 303.486 447.274 302.04 446.865 300.498C446.633 299.748 446.415 298.998 446.183 298.248C445.951 297.498 445.651 296.72 445.392 295.943C444.737 294.169 444.028 292.396 443.195 290.623C444.478 290.323 448.979 289.177 450.793 287.786C452.607 286.395 454.503 284.144 454.476 281.743C454.489 281.181 454.384 280.623 454.168 280.104C453.951 279.585 453.628 279.117 453.219 278.731C452.81 278.345 452.324 278.05 451.793 277.864C451.263 277.678 450.699 277.605 450.138 277.651C446.742 278.02 443.809 283.407 443.195 286.381C443.195 286.572 442.964 288.754 442.868 289.955C442.391 288.891 441.913 287.841 441.395 286.777C439.881 283.735 438.258 280.707 436.648 277.665C436.144 276.738 435.666 275.81 435.189 274.869C435.639 274.773 441.027 273.505 443.045 271.964C444.846 270.6 446.756 268.322 446.742 265.921C446.743 265.361 446.629 264.807 446.408 264.293C446.186 263.779 445.861 263.316 445.453 262.932C445.045 262.548 444.563 262.253 444.036 262.063C443.51 261.873 442.949 261.794 442.391 261.829C439.008 262.197 436.075 267.585 435.462 270.559C435.462 270.777 435.134 273.928 435.093 274.732C434.029 272.673 432.993 270.64 432.038 268.554C430.75 265.772 429.643 262.911 428.723 259.988C428.928 259.988 434.561 258.624 436.635 257.069C438.435 255.705 440.345 253.427 440.331 251.026C440.332 250.466 440.218 249.912 439.997 249.398C439.775 248.884 439.45 248.421 439.042 248.037C438.635 247.653 438.152 247.358 437.626 247.168C437.099 246.978 436.539 246.899 435.98 246.934C432.597 247.302 429.665 252.69 429.051 255.664C429.051 255.909 428.696 259.292 428.683 259.906C428.683 259.728 428.56 259.565 428.505 259.387C427.663 256.426 427.088 253.395 426.787 250.331C426.596 248.653 426.514 247.016 426.459 245.434C427.537 245.311 432.42 244.656 434.452 243.429C436.485 242.201 438.544 240.223 438.79 237.823C438.856 237.265 438.806 236.699 438.644 236.161C438.482 235.622 438.211 235.123 437.848 234.695C437.484 234.266 437.036 233.917 436.532 233.669C436.027 233.421 435.477 233.279 434.916 233.253C431.506 233.253 428.001 238.286 427.059 241.164C427.059 241.328 426.677 242.979 426.446 244.193C426.446 243.47 426.446 242.733 426.446 242.051C426.446 239.487 426.609 237.127 426.773 235.04C426.882 233.853 426.991 232.789 427.114 231.78C428.096 231.112 432.024 228.329 433.238 226.324C434.452 224.319 435.393 221.591 434.507 219.368C434.319 218.834 434.021 218.346 433.632 217.936C433.243 217.526 432.771 217.202 432.249 216.987C431.726 216.772 431.163 216.67 430.598 216.688C430.033 216.705 429.477 216.842 428.969 217.09C425.941 218.645 425.15 224.728 425.641 227.729C425.641 227.988 426.827 231.957 426.882 231.93C426.759 232.885 426.623 233.922 426.5 235.04C426.296 237.127 426.077 239.487 426.023 242.078C425.927 244.858 425.991 247.64 426.214 250.412C426.459 253.521 426.98 256.602 427.769 259.619C427.761 259.655 427.761 259.693 427.769 259.728C427.237 258.896 425.654 256.591 425.518 256.428C423.527 254.122 418.343 250.862 415.206 252.186C414.7 252.428 414.249 252.773 413.881 253.198C413.513 253.622 413.237 254.118 413.069 254.654C412.902 255.191 412.846 255.755 412.907 256.314C412.967 256.872 413.141 257.413 413.419 257.901C414.579 260.015 417.348 261.052 419.598 261.379C422.122 261.747 427.455 260.206 427.878 260.083C428.759 263.129 429.839 266.113 431.11 269.017C431.847 270.722 432.638 272.414 433.457 274.091C432.965 273.382 432.529 272.727 432.461 272.727C430.469 270.436 425.273 267.162 422.149 268.485C421.641 268.728 421.188 269.073 420.819 269.499C420.45 269.925 420.173 270.422 420.005 270.96C419.838 271.498 419.783 272.064 419.844 272.624C419.905 273.184 420.082 273.725 420.362 274.214C421.522 276.315 424.29 277.365 426.527 277.692C428.764 278.02 433.347 276.792 434.589 276.451C434.902 277.092 435.216 277.733 435.543 278.374C437.085 281.457 438.64 284.512 440.072 287.554C440.577 288.632 441.027 289.709 441.436 290.787C441.013 290.146 440.645 289.627 440.577 289.546C438.585 287.254 433.388 283.98 430.265 285.303C429.756 285.546 429.304 285.891 428.935 286.317C428.566 286.743 428.289 287.24 428.121 287.778C427.953 288.316 427.898 288.882 427.96 289.442C428.021 290.002 428.198 290.544 428.478 291.032C429.637 293.133 432.406 294.169 434.643 294.497C436.88 294.824 441.054 293.719 442.486 293.324C442.923 294.442 443.373 295.561 443.741 296.666C443.987 297.416 444.273 298.125 444.464 298.903C444.655 299.68 444.887 300.417 445.105 301.167C445.446 302.626 445.814 304.127 446.128 305.545C446.346 306.541 446.537 307.482 446.728 308.437C446.237 307.359 445.228 305.286 445.132 305.122C443.509 302.544 438.872 298.521 435.584 299.366C435.039 299.518 434.531 299.784 434.096 300.147C433.66 300.509 433.306 300.96 433.058 301.469C432.809 301.978 432.671 302.534 432.653 303.1C432.634 303.666 432.736 304.23 432.952 304.754C433.77 307.005 436.348 308.451 438.517 309.119C440.918 309.842 446.21 309.119 446.865 309.119C447.178 310.701 447.478 312.242 447.724 313.702C448.624 318.749 449.17 322.991 449.511 325.978C449.511 326.51 449.62 326.974 449.674 327.424H439.431L442.718 391.668C442.84 394.02 443.861 396.236 445.569 397.858C447.277 399.48 449.542 400.384 451.898 400.384C454.252 400.384 456.516 399.479 458.222 397.857C459.927 396.235 460.945 394.019 461.064 391.668L464.365 327.424H454.817C454.885 327.274 454.953 327.137 455.035 326.987C456.399 324.259 458.159 320.331 460.123 315.543C460.737 314.029 461.378 312.393 462.005 310.715C462.646 310.851 467.884 311.915 470.325 311.356C472.549 310.865 475.222 309.61 476.218 307.428C476.461 306.919 476.595 306.365 476.614 305.801C476.632 305.238 476.534 304.676 476.325 304.152C476.116 303.629 475.802 303.154 475.401 302.757C474.999 302.361 474.521 302.051 473.995 301.849C470.762 300.771 465.811 304.44 464.037 306.882C463.928 307.018 462.96 308.723 462.36 309.801C462.605 309.105 462.864 308.437 463.124 307.728C463.642 306.364 464.106 304.918 464.624 303.39C464.842 302.654 465.074 301.903 465.292 301.14C465.511 300.376 465.702 299.571 465.906 298.78C466.343 296.938 466.697 295.056 467.011 293.146C468.239 293.597 472.631 295.124 474.908 294.961C477.186 294.797 480.01 293.965 481.319 291.96C481.633 291.493 481.848 290.967 481.95 290.413C482.051 289.86 482.038 289.291 481.91 288.744C481.782 288.196 481.542 287.68 481.206 287.229C480.869 286.778 480.444 286.401 479.955 286.122C476.927 284.553 471.512 287.486 469.357 289.573C469.221 289.709 467.843 291.428 467.106 292.383C467.297 291.223 467.475 290.077 467.625 288.918C468.048 285.535 468.361 282.098 468.689 278.688L469.016 275.565C469.453 275.728 474.636 277.651 477.2 277.474C479.464 277.31 482.301 276.478 483.611 274.473C483.925 274.007 484.14 273.48 484.241 272.927C484.343 272.373 484.329 271.805 484.201 271.257C484.073 270.709 483.833 270.194 483.497 269.743C483.161 269.291 482.735 268.915 482.247 268.635C479.219 267.067 473.79 269.999 471.649 272.086C471.485 272.25 469.507 274.719 469.043 275.374C469.275 273.068 469.548 270.777 469.903 268.554C470.36 265.519 471.012 262.516 471.853 259.565C472.058 259.647 477.459 261.679 480.037 261.488C482.301 261.338 485.139 260.506 486.448 258.487C486.762 258.021 486.977 257.494 487.078 256.941C487.18 256.387 487.166 255.819 487.038 255.271C486.91 254.723 486.671 254.208 486.334 253.756C485.998 253.305 485.572 252.928 485.084 252.649C482.056 251.094 476.641 254.013 474.486 256.114C474.322 256.278 472.194 258.937 471.853 259.442C471.853 259.278 471.935 259.087 471.99 258.924C472.919 255.986 474.111 253.137 475.55 250.412C476.313 248.898 477.145 247.493 477.977 246.157C478.946 246.634 483.433 248.789 485.752 248.885C488.071 248.98 490.922 248.462 492.45 246.607C492.815 246.178 493.089 245.679 493.253 245.14C493.417 244.601 493.468 244.034 493.403 243.475C493.337 242.915 493.157 242.375 492.873 241.888C492.59 241.402 492.209 240.979 491.754 240.646C488.917 238.764 483.215 241.028 480.842 242.924C480.719 243.033 479.478 244.288 478.659 245.106L479.805 243.292C481.237 241.151 482.67 239.282 483.897 237.632C484.634 236.691 485.329 235.872 485.971 235.095C487.171 235.095 491.986 234.931 494.086 233.949C496.187 232.967 498.492 231.221 498.997 228.834C499.159 228.269 499.197 227.675 499.109 227.093C499.02 226.512 498.808 225.956 498.486 225.464C498.163 224.973 497.739 224.556 497.241 224.243C496.743 223.93 496.183 223.728 495.6 223.651ZM458.131 314.548C456.085 319.253 454.203 323.1 452.853 325.76L452.116 327.219H451.884C451.816 326.701 451.748 326.128 451.652 325.487C451.243 322.486 450.602 318.217 449.593 313.211C449.265 311.601 448.897 309.883 448.501 308.137C450.094 307.493 451.651 306.765 453.166 305.954C455.223 307.723 457.519 309.192 459.986 310.319C459.332 311.751 458.731 313.197 458.131 314.548Z" fill="#071A23"/>
<path d="M477.773 245.297C477.773 245.297 478.85 241.328 478.891 241.069C479.314 238.054 478.346 231.998 475.29 230.512C474.775 230.294 474.22 230.185 473.66 230.19C473.1 230.195 472.548 230.316 472.036 230.543C471.525 230.771 471.066 231.101 470.687 231.513C470.308 231.925 470.018 232.411 469.834 232.939C469.016 235.204 470.053 237.973 471.294 239.882C472.712 242.119 477.759 245.297 477.773 245.297Z" fill="#071A23"/>
</g>
</svg>
